<?xml version="1.0" encoding="UTF-8" standalone="no"?>
<!-- Created with Inkscape (http://www.inkscape.org/) -->

<svg
   version="1.1"
   id="svg2"
   width="1365.3333"
   height="1365.3733"
   viewBox="0 0 1365.3333 1365.3733"
   sodipodi:docname="Fitbit_app_icon.eps"
   xmlns:inkscape="http://www.inkscape.org/namespaces/inkscape"
   xmlns:sodipodi="http://sodipodi.sourceforge.net/DTD/sodipodi-0.dtd"
   xmlns="http://www.w3.org/2000/svg"
   xmlns:svg="http://www.w3.org/2000/svg">
  <defs
     id="defs6" />
  <sodipodi:namedview
     id="namedview4"
     pagecolor="#ffffff"
     bordercolor="#000000"
     borderopacity="0.25"
     inkscape:showpageshadow="2"
     inkscape:pageopacity="0.0"
     inkscape:pagecheckerboard="0"
     inkscape:deskcolor="#d1d1d1" />
  <g
     id="g8"
     inkscape:groupmode="layer"
     inkscape:label="ink_ext_XXXXXX"
     transform="matrix(1.3333333,0,0,-1.3333333,0,1365.3733)">
    <g
       id="g10"
       transform="scale(0.1)">
      <path
         d="M 2703.49,5 C 1713.95,5 1137.53,213 675.184,675.512 212.844,1138.05 5,1714.72 5,2704.69 v 4830.96 c 0,989.92 207.844,1566.66 670.184,2029.18 462.346,462.47 1038.766,670.47 2028.306,670.47 h 4833.05 c 989.54,0 1565.96,-208 2028.31,-670.47 C 10027.2,9102.31 10235,8525.57 10235,7535.65 V 2704.69 C 10235,1714.72 10027.2,1138.05 9564.85,675.512 9102.5,213 8526.08,5 7536.54,5 6547.01,5 3693.03,5 2703.49,5"
         style="fill:#45b5b8;fill-opacity:1;fill-rule:nonzero;stroke:none"
         id="path12" />
      <path
         d="M 2703.49,5 C 1713.95,5 1137.53,213 675.184,675.512 212.844,1138.05 5,1714.72 5,2704.69 v 4830.96 c 0,989.92 207.844,1566.66 670.184,2029.18 462.346,462.47 1038.766,670.47 2028.306,670.47 h 4833.05 c 989.54,0 1565.96,-208 2028.31,-670.47 C 10027.2,9102.31 10235,8525.57 10235,7535.65 V 2704.69 C 10235,1714.72 10027.2,1138.05 9564.85,675.512 9102.5,213 8526.08,5 7536.54,5 6547.01,5 3693.03,5 2703.49,5 Z"
         style="fill:none;stroke:#328e94;stroke-width:10;stroke-linecap:butt;stroke-linejoin:miter;stroke-miterlimit:10;stroke-dasharray:none;stroke-opacity:1"
         id="path14" />
      <path
         d="m 1592.7,5582.83 c -270.93,0 -490.57,-219.63 -490.57,-490.56 0,-270.93 219.64,-490.57 490.57,-490.57 270.93,0 490.56,219.64 490.56,490.57 0,270.93 -219.63,490.56 -490.56,490.56 z M 3275.42,3932.08 c -302.02,0 -546.86,-244.83 -546.86,-546.86 0,-302.02 244.84,-546.85 546.86,-546.85 302.02,0 546.86,244.83 546.86,546.85 0,302.03 -244.84,546.86 -546.86,546.86 z m 0,1731.17 c -315.35,0 -570.99,-255.63 -570.99,-570.98 0,-315.35 255.64,-570.99 570.99,-570.99 315.35,0 570.99,255.64 570.99,570.99 0,315.35 -255.64,570.98 -570.99,570.98 z m 0,1683.03 c -302.02,0 -546.86,-244.84 -546.86,-546.86 0,-302.02 244.84,-546.86 546.86,-546.86 302.02,0 546.86,244.84 546.86,546.86 0,302.02 -244.84,546.86 -546.86,546.86 z M 8324.19,5904.52 c -448.59,0 -812.24,-363.66 -812.24,-812.25 0,-448.59 363.65,-812.25 812.24,-812.25 448.6,0 812.25,363.66 812.25,812.25 0,448.59 -363.65,812.25 -812.25,812.25 z M 6618.99,4092.93 c -390.85,0 -707.7,-316.85 -707.7,-707.71 0,-390.85 316.85,-707.7 707.7,-707.7 390.85,0 707.7,316.85 707.7,707.7 0,390.86 -316.85,707.71 -707.7,707.71 z m 0,1731.17 c -404.18,0 -731.83,-327.65 -731.83,-731.83 0,-404.18 327.65,-731.83 731.83,-731.83 404.18,0 731.83,327.65 731.83,731.83 0,404.18 -327.65,731.83 -731.83,731.83 z m 0,1683.02 c -390.85,0 -707.7,-316.85 -707.7,-707.7 0,-390.85 316.85,-707.7 707.7,-707.7 390.85,0 707.7,316.85 707.7,707.7 0,390.85 -316.85,707.7 -707.7,707.7 z M 4958.02,2281.47 c -333.11,0 -603.16,-270.04 -603.16,-603.15 0,-333.11 270.05,-603.15 603.16,-603.15 333.11,0 603.15,270.04 603.15,603.15 0,333.11 -270.04,603.15 -603.15,603.15 z m 0,1731.04 c -346.44,0 -627.28,-280.85 -627.28,-627.29 0,-346.43 280.84,-627.27 627.28,-627.27 346.43,0 627.28,280.84 627.28,627.27 0,346.44 -280.85,627.29 -627.28,627.29 z m 0,1731.16 c -359.76,0 -651.41,-291.64 -651.41,-651.4 0,-359.76 291.65,-651.41 651.41,-651.41 359.76,0 651.4,291.65 651.4,651.41 0,359.76 -291.64,651.4 -651.4,651.4 z m 0,1683.03 c -346.44,0 -627.28,-280.84 -627.28,-627.28 0,-346.44 280.84,-627.28 627.28,-627.28 346.43,0 627.28,280.84 627.28,627.28 0,346.44 -280.85,627.28 -627.28,627.28 z m 603.15,1079.61 c 0,-333.11 -270.04,-603.15 -603.15,-603.15 -333.11,0 -603.16,270.04 -603.16,603.15 0,333.12 270.05,603.16 603.16,603.16 333.11,0 603.15,-270.04 603.15,-603.16"
         style="fill:#ffffff;fill-opacity:1;fill-rule:nonzero;stroke:none"
         id="path16" />
    </g>
  </g>
</svg>
